<?xml version="1.0" encoding="UTF-8" standalone="no"?>
<!-- Created with Inkscape (http://www.inkscape.org/) -->

<svg
   version="1.1"
   id="svg2"
   xml:space="preserve"
   width="2666.6667"
   height="2666.6667"
   viewBox="0 0 2666.6667 2666.6667"
   sodipodi:docname="vecteezy_happy-university-students_.eps"
   xmlns:inkscape="http://www.inkscape.org/namespaces/inkscape"
   xmlns:sodipodi="http://sodipodi.sourceforge.net/DTD/sodipodi-0.dtd"
   xmlns="http://www.w3.org/2000/svg"
   xmlns:svg="http://www.w3.org/2000/svg"><defs
     id="defs6"><clipPath
       clipPathUnits="userSpaceOnUse"
       id="clipPath22"><path
         d="m 17150,10481.7 c 0,-3948.8 -3201.2,-7150 -7150,-7150 -3948.84,0 -7150,3201.2 -7150,7150 0,3948.9 3201.16,7150 7150,7150 3948.8,0 7150,-3201.1 7150,-7150 z"
         id="path20" /></clipPath></defs><sodipodi:namedview
     id="namedview4"
     pagecolor="#ffffff"
     bordercolor="#666666"
     borderopacity="1.0"
     inkscape:pageshadow="2"
     inkscape:pageopacity="0.0"
     inkscape:pagecheckerboard="0" /><g
     id="g8"
     inkscape:groupmode="layer"
     inkscape:label="ink_ext_XXXXXX"
     transform="matrix(1.3333333,0,0,-1.3333333,0,2666.6667)"><g
       id="g10"
       transform="scale(0.1)"><path
         d="M 20000,0 H 0 V 20000 H 20000 V 0"
         style="fill:#ffffff;fill-opacity:1;fill-rule:nonzero;stroke:none"
         id="path12" /><path
         d="m 17150,10481.7 c 0,-3948.8 -3201.2,-7150 -7150,-7150 -3948.84,0 -7150,3201.2 -7150,7150 0,3948.9 3201.16,7150 7150,7150 3948.8,0 7150,-3201.1 7150,-7150"
         style="fill:#f9d8ad;fill-opacity:1;fill-rule:nonzero;stroke:none"
         id="path14" /><g
         id="g16"><g
           id="g18"
           clip-path="url(#clipPath22)"><path
             d="M 18510,3468.3 H 3177.3 V 6919.9 H 18510 V 3468.3"
             style="fill:#e8c395;fill-opacity:1;fill-rule:nonzero;stroke:none"
             id="path24" /><path
             d="M 10000,16359.7 7117.27,15054.1 h 5765.43 z"
             style="fill:#ffe9d2;fill-opacity:1;fill-rule:nonzero;stroke:none"
             id="path26" /><path
             d="M 8384.76,13997.2 H 6842.81 v 273 h 1541.95 v -273"
             style="fill:#ffe9d2;fill-opacity:1;fill-rule:nonzero;stroke:none"
             id="path28" /><path
             d="m 8110.31,13997.2 h -993.04 v -8882 h 993.04 v 8882"
             style="fill:#e8c395;fill-opacity:1;fill-rule:nonzero;stroke:none"
             id="path30" /><path
             d="m 7658.87,13997.2 h -90.17 v -8882 h 90.17 v 8882"
             style="fill:#ffe9d2;fill-opacity:1;fill-rule:nonzero;stroke:none"
             id="path32" /><path
             d="m 7392.87,13997.2 h -90.18 v -8882 h 90.18 v 8882"
             style="fill:#ffe9d2;fill-opacity:1;fill-rule:nonzero;stroke:none"
             id="path34" /><path
             d="m 7834.71,13997.2 h 90.17 v -8882 h -90.17 v 8882"
             style="fill:#ffe9d2;fill-opacity:1;fill-rule:nonzero;stroke:none"
             id="path36" /><path
             d="m 6982.58,15372.3 v 117.2 h 35.5 l 23.11,144.3 -372.25,189.4 -372.25,-189.4 23.12,-144.3 h 35.5 v -117.2 h -134.69 v -318.2 h 896.65 v 318.2 h -134.69"
             style="fill:#e8c395;fill-opacity:1;fill-rule:nonzero;stroke:none"
             id="path38" /><path
             d="m 6590.23,6001.9 h -193.77 v 8268.3 h 193.77 V 6001.9"
             style="fill:#ffe9d2;fill-opacity:1;fill-rule:nonzero;stroke:none"
             id="path40" /><path
             d="M 6396.46,13377.3 H 2896.79 v 344.6 h 3499.67 v -344.6"
             style="fill:#ffe9d2;fill-opacity:1;fill-rule:nonzero;stroke:none"
             id="path42" /><path
             d="M 6396.46,13377.3 H 3177.3 V 9758 h 3219.16 v 3619.3"
             style="fill:#e8c395;fill-opacity:1;fill-rule:nonzero;stroke:none"
             id="path44" /><path
             d="M 6396.46,6038.8 H 2027.6 V 9218 l 1149.7,540 H 6396.46 V 6038.8"
             style="fill:#ffe9d2;fill-opacity:1;fill-rule:nonzero;stroke:none"
             id="path46" /><path
             d="m 4489.31,12667.1 h -960.34 v 148.8 h 960.34 v -148.8"
             style="fill:#ffe9d2;fill-opacity:1;fill-rule:nonzero;stroke:none"
             id="path48" /><path
             d="m 4489.31,11347.2 h -960.34 v 148.7 h 960.34 v -148.7"
             style="fill:#ffe9d2;fill-opacity:1;fill-rule:nonzero;stroke:none"
             id="path50" /><path
             d="m 4387.87,12667.1 h -757.45 v -1170 h 757.45 v 1170"
             style="fill:#f9d8ad;fill-opacity:1;fill-rule:nonzero;stroke:none"
             id="path52" /><path
             d="m 4039.58,12667.1 h -60.87 v -1170 h 60.87 v 1170"
             style="fill:#ffe9d2;fill-opacity:1;fill-rule:nonzero;stroke:none"
             id="path54" /><path
             d="m 4387.91,12051.7 v 60.8 l -757.45,0.1 v -60.9 h 757.45"
             style="fill:#ffe9d2;fill-opacity:1;fill-rule:nonzero;stroke:none"
             id="path56" /><path
             d="m 5963.63,12667.1 h -960.34 v 148.8 h 960.34 v -148.8"
             style="fill:#ffe9d2;fill-opacity:1;fill-rule:nonzero;stroke:none"
             id="path58" /><path
             d="m 5963.63,11347.2 h -960.34 v 148.7 h 960.34 v -148.7"
             style="fill:#ffe9d2;fill-opacity:1;fill-rule:nonzero;stroke:none"
             id="path60" /><path
             d="m 5862.19,12667.1 h -757.45 v -1170 h 757.45 v 1170"
             style="fill:#f9d8ad;fill-opacity:1;fill-rule:nonzero;stroke:none"
             id="path62" /><path
             d="m 5513.9,12667.1 h -60.87 v -1170 h 60.87 v 1170"
             style="fill:#ffe9d2;fill-opacity:1;fill-rule:nonzero;stroke:none"
             id="path64" /><path
             d="m 5862.23,12051.7 v 60.8 l -757.45,0.1 v -60.9 h 757.45"
             style="fill:#ffe9d2;fill-opacity:1;fill-rule:nonzero;stroke:none"
             id="path66" /><path
             d="m 9742.17,12667.1 h -960.33 v 148.8 h 960.33 v -148.8"
             style="fill:#ffe9d2;fill-opacity:1;fill-rule:nonzero;stroke:none"
             id="path68" /><path
             d="m 9742.17,11347.2 h -960.33 v 148.7 h 960.33 v -148.7"
             style="fill:#ffe9d2;fill-opacity:1;fill-rule:nonzero;stroke:none"
             id="path70" /><path
             d="m 9640.73,12667.1 h -757.45 v -1170 h 757.45 v 1170"
             style="fill:#e8c395;fill-opacity:1;fill-rule:nonzero;stroke:none"
             id="path72" /><path
             d="m 9292.44,12667.1 h -60.87 v -1170 h 60.87 v 1170"
             style="fill:#ffe9d2;fill-opacity:1;fill-rule:nonzero;stroke:none"
             id="path74" /><path
             d="m 9640.78,12051.7 v 60.8 l -757.46,0.1 v -60.9 h 757.46"
             style="fill:#ffe9d2;fill-opacity:1;fill-rule:nonzero;stroke:none"
             id="path76" /><path
             d="m 10257.8,12667.1 h 960.4 v 148.8 h -960.4 v -148.8"
             style="fill:#ffe9d2;fill-opacity:1;fill-rule:nonzero;stroke:none"
             id="path78" /><path
             d="m 10257.8,11347.2 h 960.4 v 148.7 h -960.4 v -148.7"
             style="fill:#ffe9d2;fill-opacity:1;fill-rule:nonzero;stroke:none"
             id="path80" /><path
             d="m 10359.3,12667.1 h 757.4 v -1170 h -757.4 v 1170"
             style="fill:#e8c395;fill-opacity:1;fill-rule:nonzero;stroke:none"
             id="path82" /><path
             d="m 10707.6,12667.1 h 60.8 v -1170 h -60.8 v 1170"
             style="fill:#ffe9d2;fill-opacity:1;fill-rule:nonzero;stroke:none"
             id="path84" /><path
             d="m 10359.2,12051.7 v 60.8 l 757.5,0.1 v -60.9 h -757.5"
             style="fill:#ffe9d2;fill-opacity:1;fill-rule:nonzero;stroke:none"
             id="path86" /><path
             d="m 9742.17,10343.6 h -960.33 v 148.8 h 960.33 v -148.8"
             style="fill:#ffe9d2;fill-opacity:1;fill-rule:nonzero;stroke:none"
             id="path88" /><path
             d="m 9742.17,9023.6 h -960.33 v 148.8 h 960.33 v -148.8"
             style="fill:#ffe9d2;fill-opacity:1;fill-rule:nonzero;stroke:none"
             id="path90" /><path
             d="m 9640.73,10343.6 h -757.45 v -1170 h 757.45 v 1170"
             style="fill:#e8c395;fill-opacity:1;fill-rule:nonzero;stroke:none"
             id="path92" /><path
             d="m 9292.44,10343.6 h -60.87 v -1170 h 60.87 v 1170"
             style="fill:#ffe9d2;fill-opacity:1;fill-rule:nonzero;stroke:none"
             id="path94" /><path
             d="m 9640.78,9728.1 v 60.9 h -757.46 v -60.8 l 757.46,-0.1"
             style="fill:#ffe9d2;fill-opacity:1;fill-rule:nonzero;stroke:none"
             id="path96" /><path
             d="m 10257.8,10343.6 h 960.4 v 148.8 h -960.4 v -148.8"
             style="fill:#ffe9d2;fill-opacity:1;fill-rule:nonzero;stroke:none"
             id="path98" /><path
             d="m 10257.8,9023.6 h 960.4 v 148.8 h -960.4 v -148.8"
             style="fill:#ffe9d2;fill-opacity:1;fill-rule:nonzero;stroke:none"
             id="path100" /><path
             d="m 10359.3,10343.6 h 757.4 v -1170 h -757.4 v 1170"
             style="fill:#e8c395;fill-opacity:1;fill-rule:nonzero;stroke:none"
             id="path102" /><path
             d="m 10707.6,10343.6 h 60.8 v -1170 h -60.8 v 1170"
             style="fill:#ffe9d2;fill-opacity:1;fill-rule:nonzero;stroke:none"
             id="path104" /><path
             d="m 10359.2,9728.1 v 60.9 h 757.5 v -60.8 l -757.5,-0.1"
             style="fill:#ffe9d2;fill-opacity:1;fill-rule:nonzero;stroke:none"
             id="path106" /><path
             d="M 10000,15054.1 H 6102.62 V 14580 h 7794.78 v 474.1 H 10000"
             style="fill:#ffe9d2;fill-opacity:1;fill-rule:nonzero;stroke:none"
             id="path108" /><path
             d="M 10000,14580 H 6220.62 v -309.8 H 13779.4 V 14580 H 10000"
             style="fill:#e8c395;fill-opacity:1;fill-rule:nonzero;stroke:none"
             id="path110" /><path
             d="m 11615.2,13997.2 h 1542 v 273 h -1542 v -273"
             style="fill:#ffe9d2;fill-opacity:1;fill-rule:nonzero;stroke:none"
             id="path112" /><path
             d="m 11889.7,13997.2 h 993 v -8882 h -993 v 8882"
             style="fill:#e8c395;fill-opacity:1;fill-rule:nonzero;stroke:none"
             id="path114" /><path
             d="m 12341.1,13997.2 h 90.2 v -8882 h -90.2 v 8882"
             style="fill:#ffe9d2;fill-opacity:1;fill-rule:nonzero;stroke:none"
             id="path116" /><path
             d="m 12607.1,13997.2 h 90.2 v -8882 h -90.2 v 8882"
             style="fill:#ffe9d2;fill-opacity:1;fill-rule:nonzero;stroke:none"
             id="path118" /><path
             d="m 12165.3,13997.2 h -90.2 v -8882 h 90.2 v 8882"
             style="fill:#ffe9d2;fill-opacity:1;fill-rule:nonzero;stroke:none"
             id="path120" /><path
             d="m 13017.4,15372.3 v 117.2 h -35.5 l -23.1,144.3 372.3,189.4 372.2,-189.4 -23.1,-144.3 h -35.5 v -117.2 h 134.7 v -318.2 h -896.7 v 318.2 h 134.7"
             style="fill:#e8c395;fill-opacity:1;fill-rule:nonzero;stroke:none"
             id="path122" /><path
             d="M 10000,16021.6 8012.82,15054.1 H 11987.2 Z"
             style="fill:#e8c395;fill-opacity:1;fill-rule:nonzero;stroke:none"
             id="path124" /><path
             d="m 13409.8,6001.9 h 193.7 v 8268.3 h -193.7 V 6001.9"
             style="fill:#ffe9d2;fill-opacity:1;fill-rule:nonzero;stroke:none"
             id="path126" /><path
             d="m 13603.5,13377.3 h 3499.7 v 344.6 h -3499.7 v -344.6"
             style="fill:#ffe9d2;fill-opacity:1;fill-rule:nonzero;stroke:none"
             id="path128" /><path
             d="m 13603.5,13377.3 h 3219.2 V 9758 h -3219.2 v 3619.3"
             style="fill:#e8c395;fill-opacity:1;fill-rule:nonzero;stroke:none"
             id="path130" /><path
             d="m 13603.5,6038.8 h 4368.9 V 9218 l -1149.7,540 H 13603.5 V 6038.8"
             style="fill:#ffe9d2;fill-opacity:1;fill-rule:nonzero;stroke:none"
             id="path132" /><path
             d="m 15510.7,12667.1 h 960.3 v 148.8 h -960.3 v -148.8"
             style="fill:#ffe9d2;fill-opacity:1;fill-rule:nonzero;stroke:none"
             id="path134" /><path
             d="m 15510.7,11347.2 h 960.3 v 148.7 h -960.3 v -148.7"
             style="fill:#ffe9d2;fill-opacity:1;fill-rule:nonzero;stroke:none"
             id="path136" /><path
             d="m 15612.1,12667.1 h 757.5 v -1170 h -757.5 v 1170"
             style="fill:#f9d8ad;fill-opacity:1;fill-rule:nonzero;stroke:none"
             id="path138" /><path
             d="m 15960.4,12667.1 h 60.9 v -1170 h -60.9 v 1170"
             style="fill:#ffe9d2;fill-opacity:1;fill-rule:nonzero;stroke:none"
             id="path140" /><path
             d="m 15612.1,12051.7 v 60.8 l 757.4,0.1 v -60.9 h -757.4"
             style="fill:#ffe9d2;fill-opacity:1;fill-rule:nonzero;stroke:none"
             id="path142" /><path
             d="m 14036.4,12667.1 h 960.3 v 148.8 h -960.3 v -148.8"
             style="fill:#ffe9d2;fill-opacity:1;fill-rule:nonzero;stroke:none"
             id="path144" /><path
             d="m 14036.4,11347.2 h 960.3 v 148.7 h -960.3 v -148.7"
             style="fill:#ffe9d2;fill-opacity:1;fill-rule:nonzero;stroke:none"
             id="path146" /><path
             d="m 14137.8,12667.1 h 757.5 v -1170 h -757.5 v 1170"
             style="fill:#f9d8ad;fill-opacity:1;fill-rule:nonzero;stroke:none"
             id="path148" /><path
             d="m 14486.1,12667.1 h 60.9 v -1170 h -60.9 v 1170"
             style="fill:#ffe9d2;fill-opacity:1;fill-rule:nonzero;stroke:none"
             id="path150" /><path
             d="m 14137.8,12051.7 v 60.8 l 757.4,0.1 v -60.9 h -757.4"
             style="fill:#ffe9d2;fill-opacity:1;fill-rule:nonzero;stroke:none"
             id="path152" /><path
             d="M 11889.7,6177.5 H 8110.31 v 269.1 h 3779.39 v -269.1"
             style="fill:#f9d8ad;fill-opacity:1;fill-rule:nonzero;stroke:none"
             id="path154" /><path
             d="M 11889.7,5615.1 H 8110.31 v 269.1 h 3779.39 v -269.1"
             style="fill:#f9d8ad;fill-opacity:1;fill-rule:nonzero;stroke:none"
             id="path156" /><path
             d="M 11889.7,5052.7 H 8110.31 v 269.1 h 3779.39 v -269.1"
             style="fill:#f9d8ad;fill-opacity:1;fill-rule:nonzero;stroke:none"
             id="path158" /></g></g><path
         d="m 15660.5,2129.4 -654.4,-75.8 -441.5,3916.7 654.4,75.9 441.5,-3916.8"
         style="fill:#357092;fill-opacity:1;fill-rule:nonzero;stroke:none"
         id="path160" /><path
         d="m 15295.9,5364.2 -654.4,-75.9 -22.4,199.2 654.3,75.8 22.5,-199.1"
         style="fill:#ffffff;fill-opacity:1;fill-rule:nonzero;stroke:none"
         id="path162" /><path
         d="m 15451,3988.2 -654.4,-75.8 -22.4,199.1 654.3,75.9 22.5,-199.2"
         style="fill:#ffffff;fill-opacity:1;fill-rule:nonzero;stroke:none"
         id="path164" /><path
         d="m 15606.1,2612.3 -654.4,-75.9 -22.5,199.2 654.4,75.8 22.5,-199.1"
         style="fill:#ffffff;fill-opacity:1;fill-rule:nonzero;stroke:none"
         id="path166" /><path
         d="m 11410,4163.8 v 762.1 h 4202 v -762.1 h -4202"
         style="fill:#f83b4f;fill-opacity:1;fill-rule:nonzero;stroke:none"
         id="path168" /><path
         d="m 14974.2,4163.8 v 762.1 h 138.2 v -762.1 h -138.2"
         style="fill:#f9d8ad;fill-opacity:1;fill-rule:nonzero;stroke:none"
         id="path170" /><path
         d="m 12047.9,4163.8 v 762.1 h -138.2 v -762.1 h 138.2"
         style="fill:#f9d8ad;fill-opacity:1;fill-rule:nonzero;stroke:none"
         id="path172" /><path
         d="m 14453,2215.6 h -2738.8 c -276.3,0 -500.4,224 -500.4,500.4 v 0 c 0,276.3 224.1,500.3 500.4,500.3 H 14453 V 2215.6"
         style="fill:#ffffff;fill-opacity:1;fill-rule:nonzero;stroke:none"
         id="path174" /><path
         d="m 11714.2,2215.6 c -276.3,0 -500.4,224 -500.4,500.4 v 0 c 0,276.3 224.1,500.3 500.4,500.3 h 3006.9 v 171.6 h -2996.2 c -371.1,0 -671.9,-300.8 -671.9,-671.9 v 0 c 0,-371.1 300.8,-672 671.9,-672 h 2996.2 v 171.6 h -3006.9"
         style="fill:#f83b4f;fill-opacity:1;fill-rule:nonzero;stroke:none"
         id="path176" /><path
         d="m 11932.5,2345.3 -218.8,218.8 -218.8,-218.8 v 437.5 h 437.6 v -437.5"
         style="fill:#8bc3c0;fill-opacity:1;fill-rule:nonzero;stroke:none"
         id="path178" /><path
         d="m 11845,4046 h 3033.4 V 3505.8 H 11845 c -149.2,0 -270.1,120.9 -270.1,270.1 v 0 c 0,149.1 120.9,270.1 270.1,270.1"
         style="fill:#ffffff;fill-opacity:1;fill-rule:nonzero;stroke:none"
         id="path180" /><path
         d="m 11845,3505.8 c -149.2,0 -270.1,120.9 -270.1,270.1 v 0 c 0,149.1 120.9,270.1 270.1,270.1 h 3237.2 v 117.8 H 11802 c -214.3,0 -388,-173.7 -388,-387.9 v 0 c 0,-214.3 173.7,-388 388,-388 h 3280.2 v 117.9 H 11845"
         style="fill:#8bc3c0;fill-opacity:1;fill-rule:nonzero;stroke:none"
         id="path182" /><path
         d="m 12347.2,3338.4 -218.8,218.7 -218.7,-218.7 v 437.5 h 437.5 v -437.5"
         style="fill:#ffba55;fill-opacity:1;fill-rule:nonzero;stroke:none"
         id="path184" /><path
         d="m 17115.7,2062.8 h -575.9 v 3871.3 h 575.9 V 2062.8"
         style="fill:#ffba55;fill-opacity:1;fill-rule:nonzero;stroke:none"
         id="path186" /><path
         d="m 17115.7,5456.9 h -575.9 v 85 h 575.9 v -85"
         style="fill:#ffffff;fill-opacity:1;fill-rule:nonzero;stroke:none"
         id="path188" /><path
         d="m 17115.7,5201.8 h -575.9 v 85 h 575.9 v -85"
         style="fill:#ffffff;fill-opacity:1;fill-rule:nonzero;stroke:none"
         id="path190" /><path
         d="m 17115.7,2540.1 h -575.9 V 2455 h 575.9 v 85.1"
         style="fill:#ffffff;fill-opacity:1;fill-rule:nonzero;stroke:none"
         id="path192" /><path
         d="m 17115.7,2795.2 h -575.9 v -85 h 575.9 v 85"
         style="fill:#ffffff;fill-opacity:1;fill-rule:nonzero;stroke:none"
         id="path194" /><path
         d="m 16647.4,3998.5 c 0,500.2 80.8,905.6 180.4,905.6 99.6,0 180.3,-405.4 180.3,-905.6 0,-500.2 -80.7,-905.6 -180.3,-905.6 -99.6,0 -180.4,405.4 -180.4,905.6"
         style="fill:#f83b4f;fill-opacity:1;fill-rule:nonzero;stroke:none"
         id="path196" /><path
         d="m 16539.8,2061.4 h -849.1 v 3289.9 h 849.1 V 2061.4"
         style="fill:#357092;fill-opacity:1;fill-rule:nonzero;stroke:none"
         id="path198" /><path
         d="m 16539.8,2792 h -849.1 v 1828.7 h 849.1 V 2792"
         style="fill:#8bc3c0;fill-opacity:1;fill-rule:nonzero;stroke:none"
         id="path200" /><path
         d="m 16539.8,4873.3 h -849.1 V 4729 h 849.1 v 144.3"
         style="fill:#ffffff;fill-opacity:1;fill-rule:nonzero;stroke:none"
         id="path202" /><path
         d="m 16539.8,2539.4 h -849.1 v 144.3 h 849.1 v -144.3"
         style="fill:#ffffff;fill-opacity:1;fill-rule:nonzero;stroke:none"
         id="path204" /><path
         d="m 17377.5,1953 h -14755 v 91 h 14755 v -91"
         style="fill:#f9d8ad;fill-opacity:1;fill-rule:nonzero;stroke:none"
         id="path206" /><path
         d="m 11080.7,2386.2 c -43.8,98 -100.6,191.7 -153.5,285.5 -89.5,158.5 -171.5,333.1 -156.6,514.6 l -348.9,-52 c 19.2,-249.5 38.4,-499 57.6,-748.5 16,6.1 32.3,11.5 48.7,16.3 179.8,52.8 375.9,45.7 552.7,-15.9"
         style="fill:#ff966c;fill-opacity:1;fill-rule:nonzero;stroke:none"
         id="path208" /><path
         d="m 11080.7,2386.2 c -176.8,61.6 -372.9,68.7 -552.7,15.9 -16.4,-4.8 -32.7,-10.2 -48.7,-16.3 6.1,-79.1 12.1,-158.2 18.2,-237.3 2,-25.7 4.5,-53 19.6,-73.9 16.9,-23.6 46.2,-34.4 74,-42.5 151.6,-44 315.6,-44.2 467.3,-0.6 28.4,8.1 58.3,19.1 75.7,42.9 20.5,28.1 18.5,66.4 12.9,100.7 -11.9,73.4 -36,143.3 -66.3,211.1"
         style="fill:#f83b4f;fill-opacity:1;fill-rule:nonzero;stroke:none"
         id="path210" /><path
         d="m 9848.6,2386.2 c -43.79,98 -100.65,191.7 -153.55,285.5 -89.49,158.5 -171.48,333.1 -156.53,514.6 l -348.89,-52 c 19.18,-249.5 38.35,-499 57.53,-748.5 16.04,6.1 32.37,11.5 48.71,16.3 179.81,52.8 375.93,45.7 552.73,-15.9"
         style="fill:#ff966c;fill-opacity:1;fill-rule:nonzero;stroke:none"
         id="path212" /><path
         d="m 9848.6,2386.2 c -176.8,61.6 -372.92,68.7 -552.73,15.9 -16.34,-4.8 -32.67,-10.2 -48.71,-16.3 6.08,-79.1 12.16,-158.2 18.23,-237.3 1.98,-25.7 4.47,-53 19.56,-73.9 16.93,-23.6 46.18,-34.4 74.04,-42.5 151.59,-44 315.6,-44.2 467.32,-0.6 28.42,8.1 58.24,19.1 75.69,42.9 20.5,28.1 18.52,66.4 12.93,100.7 -11.97,73.4 -36.05,143.3 -66.33,211.1"
         style="fill:#f83b4f;fill-opacity:1;fill-rule:nonzero;stroke:none"
         id="path214" /><path
         d="m 10799.3,5051 c -45.2,535.1 29.9,4307.2 -312.1,5632.2 l -600.75,-115 c 0.09,114.7 -1.15,219.1 -3.95,310.9 l -1022.9,-61.5 c -163.9,-1504.3 11.31,-3024.4 -42.73,-4536.6 -8.77,-245.7 -23.61,-491.3 -24.29,-737.2 -2.42,-874.9 174.03,-1739.3 349.72,-2596.5 164.8,-35.7 350.56,-54.4 510.05,0.3 -23.21,828.3 36.97,1787.5 13.76,2615.7 -4.16,148.6 46.62,2085.1 106.62,3215.3 33.58,-405.3 83.1,-1740.1 120.76,-2143.2 62.83,-672.5 118.21,-1371.2 189.21,-2042.9 59.6,-563.8 238.4,-1069.9 335.8,-1628.4 155,-7.4 287.1,-5.1 441.3,13 -88.3,687.5 -2.1,1383.2 -60.5,2073.9"
         style="fill:#113c54;fill-opacity:1;fill-rule:nonzero;stroke:none"
         id="path216" /><path
         d="m 10430.2,12824.5 c 247.1,-53.7 438.2,-246.4 598.5,-442 160.4,-195.5 312.6,-408.9 532.7,-533.5 -192.5,-129.3 -410.6,-220.1 -638,-265.5 l -493.2,1241"
         style="fill:#99583f;fill-opacity:1;fill-rule:nonzero;stroke:none"
         id="path218" /><path
         d="m 10593.3,12725.4 c 135.3,-121.9 224.3,-285.6 309.1,-446.7 129.7,-246.3 255.7,-494.4 381.7,-742.6 75.2,-148.3 150.6,-296.7 217.9,-448.8 81.6,-184.4 152.5,-383.5 127.2,-583.5 -11.9,-94.5 -45.1,-185.1 -83.3,-272.5 -75.2,-171.7 -171,-334.4 -284.7,-483.5 -25.3,-33.2 -52.6,-66.6 -89.4,-86.2 -44.1,-23.5 -96.2,-24.4 -146.2,-24.8 -171,-1.3 -341.9,-2.6 -512.9,-3.9 -17.6,-0.1 -36.5,0.1 -50.9,10.3 -15,10.5 -21.5,29.1 -27.1,46.5 -129.4,403.3 -247.6,813.5 -285.5,1235.3 -37.9,421.8 8.5,859.2 195.1,1239.4 l 249,561"
         style="fill:#c27d56;fill-opacity:1;fill-rule:nonzero;stroke:none"
         id="path220" /><path
         d="m 7634.45,10876.8 -101.91,140.3 c 165.55,321.7 350.28,624.1 578.97,904.4 39.46,-24.6 60.26,-69.7 78.93,-112.3 76.02,-173.5 152.57,-348.5 190.46,-534.1 37.89,-185.5 34.62,-384.8 -44.92,-556.7 l -701.53,158.4"
         style="fill:#ff966c;fill-opacity:1;fill-rule:nonzero;stroke:none"
         id="path222" /><path
         d="m 9945.73,12081.8 c -408.63,-58.1 -819.38,68.2 -1207.49,208.6 -81.44,29.5 -170.47,66.6 -206.77,145.3 -42.27,91.5 5.23,198.2 58.59,283.7 53.35,85.6 116.15,177.2 104.35,277.3 -3.31,28.1 -12.56,55.7 -11.17,84 5.18,105.1 137,145.1 213.21,217.7 120.57,114.8 94.65,311.7 46.96,471.3 -68.51,229.1 -163.88,454.6 -175.79,693.5 -11.92,238.9 83.54,503.8 299.59,606.5 168.4,80 367.52,127.4 553.78,119.2 48.98,-2.2 99.51,-8 141.92,-32.6 42.42,-24.6 72.57,-65.5 98.96,-106.8 190.83,-298.7 244.53,-668.1 220.73,-1021.7 -14.1,-209.6 -46.6,-444.6 85.4,-608 90,-111.4 253.4,-187.9 254.6,-331.1 0.3,-44.3 -16.6,-87.5 -14.6,-131.8 2.7,-57.4 36.3,-107.9 65.7,-157.3 82.4,-138.1 140.6,-294.7 140.1,-455.5 -0.5,-160.9 -65.7,-325.9 -193,-424.2 l -475.07,161.9"
         style="fill:#5f130d;fill-opacity:1;fill-rule:nonzero;stroke:none"
         id="path224" /><path
         d="m 9334.21,10455.7 c 323.58,-24.8 645.15,53.9 960.19,132.1 74.1,573.1 -2.8,1174 -92.9,1744.9 -33.1,209.6 -69,418.8 -107.7,627.5 -328.85,-92.5 -673.13,-129.9 -1014.16,-110.1 l 254.57,-2394.4"
         style="fill:#8bc3c0;fill-opacity:1;fill-rule:nonzero;stroke:none"
         id="path226" /><path
         d="m 9052.39,13878.4 c -162.95,225.4 -248.9,505.4 -240.48,783.4 2.49,82.2 13.27,165.3 44.49,241.4 40.53,98.9 114.75,182.3 204.09,240.9 89.35,58.6 193.28,93.1 299.13,107.7 190.79,26.3 403.47,-20.4 527.3,-167.9 65.95,-78.5 101.48,-179 117.28,-280.3 15.8,-101.3 13.2,-204.5 10.5,-307.1 -2.2,-85.4 -4.5,-170.8 -6.7,-256.3 -4.1,-155 -99.95,-305.9 -231.74,-387.6 l -723.87,25.8"
         style="fill:#f83b4f;fill-opacity:1;fill-rule:nonzero;stroke:none"
         id="path228" /><path
         d="m 8887.45,14187.3 c -51.37,36.4 -124.53,38.1 -132.58,-40 -5.18,-50.1 20.65,-103.7 44.5,-146.3 31.87,-56.8 73.14,-110 128.11,-145.1 47.52,-30.2 106.4,-45.4 161.33,-35.3 -78.4,104.9 -135.93,229.4 -179.9,350.4 -7.04,5.6 -14.13,11.1 -21.46,16.3"
         style="fill:#ff966c;fill-opacity:1;fill-rule:nonzero;stroke:none"
         id="path230" /><path
         d="m 10181.3,14373.2 c -6.1,19.3 -16.6,38.4 -34.3,48.1 -22.2,12.1 -50,6.5 -72.9,-4.4 -18.7,-8.8 -47.5,-24.6 -62.5,-38.7 -24.65,-140.3 -53.09,-273.7 -107.38,-405.6 44.03,-9.2 90.77,-5.4 132.38,11.6 106.6,43.6 139.9,152.9 149.8,256.8 4.3,44.2 8.2,89.8 -5.1,132.2"
         style="fill:#ff966c;fill-opacity:1;fill-rule:nonzero;stroke:none"
         id="path232" /><path
         d="m 9904.6,13873.3 c 52.53,147.3 64.03,305.7 73.76,461.8 9.44,151.3 17.45,305.2 -17.88,452.6 -35.32,147.4 -120.54,289.9 -255.31,359.3 -160.11,82.4 -358.41,53.1 -517.01,-17.6 -166.93,-74.5 -284.91,-189.3 -313.39,-375.2 -52.85,-345.1 74.94,-697.5 270.72,-986.5 l 759.11,105.6"
         style="fill:#5f130d;fill-opacity:1;fill-rule:nonzero;stroke:none"
         id="path234" /><path
         d="m 9384.55,13579.7 c 22.73,-157.5 28.02,-317.5 15.76,-476.2 -145.3,-71.7 -291.28,-137.9 -436.58,-209.6 -2.71,-1.3 -5.55,-2.8 -7.22,-5.3 -1.95,-3 -1.89,-6.8 -1.75,-10.3 0.88,-22.7 1.75,-45.3 2.63,-67.9 354.37,-47.8 731.18,-23.9 1080.91,50.8 17.1,46.9 27.3,96 44.4,142.9 -85.63,43.2 -183.21,88.3 -268.85,131.5 -31.96,186.4 -57.51,378.9 -66.7,567.8 l -362.6,-123.7"
         style="fill:#ff966c;fill-opacity:1;fill-rule:nonzero;stroke:none"
         id="path236" /><path
         d="m 9604.45,13426.8 c 63.26,19 114.49,50 156.27,95.5 -5.91,60.6 -10.64,121 -13.57,181.1 l -362.6,-123.7 c 5.75,-39.9 10.37,-79.9 13.88,-120 58.09,-42.5 134.18,-59 206.02,-32.9"
         style="fill:#c27d56;fill-opacity:1;fill-rule:nonzero;stroke:none"
         id="path238" /><path
         d="m 9931.61,14313.8 c 11.25,-111.2 12.67,-223.4 4.24,-334.8 -6.48,-85.7 -19.23,-172.5 -56.25,-250.1 -58.13,-121.8 -177.22,-212.6 -310.07,-236.3 -132.86,-23.8 -276.04,20 -372.8,114.1 -77.04,74.9 -122.84,175.7 -162.99,275.4 -43.5,108 -81.05,214.7 -95.12,330.3 80.83,96.7 157.63,196.7 230.16,299.8 -45.48,-97.9 -96.99,-192.9 -154.13,-284.4 185.85,135.9 337.88,317.7 438.79,524.6 103.74,-23.1 189.4,-97.8 255.75,-180.8 66.35,-83 139.65,-191.1 222.42,-257.8"
         style="fill:#ff966c;fill-opacity:1;fill-rule:nonzero;stroke:none"
         id="path240" /><path
         d="m 9304.45,14119.3 c 0,-11 -8.96,-20 -20,-20 -11.05,0 -20,9 -20,20 0,11.1 8.95,20 20,20 11.04,0 20,-8.9 20,-20"
         style="fill:#5f130d;fill-opacity:1;fill-rule:nonzero;stroke:none"
         id="path242" /><path
         d="m 9666.11,14177.9 c 0,-11.1 -8.95,-20 -20,-20 -11.04,0 -20,8.9 -20,20 0,11 8.96,20 20,20 11.05,0 20,-9 20,-20"
         style="fill:#5f130d;fill-opacity:1;fill-rule:nonzero;stroke:none"
         id="path244" /><path
         d="m 9500.03,13998.5 c -4.65,38.6 -11.14,76.9 -19.43,114.9 1.58,-7.2 31.08,-24.7 37.29,-31.7 25.99,-29.4 17.27,-63.8 -17.86,-83.2"
         style="fill:#fc571e;fill-opacity:1;fill-rule:nonzero;stroke:none"
         id="path246" /><path
         d="m 9163.05,14301.3 c 37.93,19.1 80.56,28.9 123.05,28.1 -10.99,10.8 -24.19,16 -39.54,14.8 -34.58,-2.6 -53.81,-25 -83.51,-42.9"
         style="fill:#5f130d;fill-opacity:1;fill-rule:nonzero;stroke:none"
         id="path248" /><path
         d="m 9702.83,14405.4 c -48.44,1.1 -97.01,-8.1 -143.29,-27.2 3.18,11.9 12.16,24 20.51,29.9 34.72,24.7 84.3,8.2 122.78,-2.7"
         style="fill:#5f130d;fill-opacity:1;fill-rule:nonzero;stroke:none"
         id="path250" /><path
         d="m 9364.82,13830.2 c 112.51,19.3 224.43,42.1 335.54,68.3 -15.72,-58.4 -43.39,-117.3 -96.35,-146.5 -41.19,-22.7 -92.17,-24.2 -136.79,-9.4 -44.63,14.8 -72.38,51.4 -102.4,87.6"
         style="fill:#b62c43;fill-opacity:1;fill-rule:nonzero;stroke:none"
         id="path252" /><path
         d="m 9301.86,11636.9 c 16.44,345.2 20.52,682.5 7,1027.9 -87.84,98 -155.39,214.1 -197.16,338.9 -150.18,-63.8 -291.79,-127 -437.97,-199.5 -39.83,-19.7 -80.08,-40.2 -112.64,-70.4 -31.18,-29 -306.83,-478.5 -341.42,-693.1 l 1082.19,-403.8"
         style="fill:#ffba55;fill-opacity:1;fill-rule:nonzero;stroke:none"
         id="path254" /><path
         d="m 9834.45,9884.4 c 331.75,29.7 590.65,127.9 888.15,277.6 15.4,154.2 62.7,313.6 121.9,456.9 72.7,9.8 144.9,24.1 215.8,42.8 39.6,10.4 79.5,22.6 113.3,45.6 33.8,23 84.4,72.5 72.7,111.7 -169.7,569.4 -339.4,1138.8 -509.1,1708.2 -18.1,60.9 -36.9,123.1 -74.3,174.5 -34.5,47.5 -82.9,83 -132.1,115.3 -175,115 -366,200.4 -559.62,280.5 -36.9,-172.8 -122.7,-335 -244.87,-462.7 100.14,-920.2 185.73,-1828 108.14,-2750.4"
         style="fill:#ffba55;fill-opacity:1;fill-rule:nonzero;stroke:none"
         id="path256" /><path
         d="m 9856.67,12431.1 c 69.82,217 167.03,423.2 277.83,622.4 48.1,-1.6 91.5,-28.1 132.2,-53.9 29.6,-18.6 60.2,-46.8 89.8,-65.5 -149.1,-190.7 -298.2,-381.4 -447.36,-572.1 -51.58,-65.9 -19.84,-156.6 -27.22,-240 227.48,-578 462.28,-1035.9 763.08,-1518.4 47.2,-75.8 100.9,-155.8 184.4,-187.7 15.4,-5.8 33.2,-11.4 40.2,-26.3 4.9,-10.4 2.9,-22.6 0.7,-33.8 -14.7,-76.8 -34.5,-154.8 -79.8,-218.5 -45.3,-63.7 -121.3,-110.7 -199,-101.6 -56.8,6.6 -107.1,42.2 -143.4,86.5 -36.3,44.2 -60.5,97 -83.8,149.2 -266.5,597.6 -474.36,1221.3 -619.59,1859.3 34.01,90.2 82.45,208.7 111.96,300.4"
         style="fill:#357092;fill-opacity:1;fill-rule:nonzero;stroke:none"
         id="path258" /><path
         d="m 7803.39,12140.7 c -7.48,87.1 -8.61,189.8 60.28,243.6 50.77,39.6 121.65,37.1 185.88,32 456.23,-35.8 917.3,-104.9 1365.63,-200.1 37.38,-7.9 65.4,-39.2 69.29,-77.2 64,-625.1 96.87,-1253.4 98.45,-1881.8 0.12,-46.6 -64.1,-59.6 -82.17,-16.6 l -0.46,1.1 -145.84,-99.9 1.38,-29.7 c 1.81,-38.8 -34.13,-68.4 -71.89,-59.3 l -1182.04,285.1 c -63.53,15.4 -110.64,68.8 -117.82,133.8 -40.11,362.4 -167.82,1519.2 -180.69,1669"
         style="fill:#f83b4f;fill-opacity:1;fill-rule:nonzero;stroke:none"
         id="path260" /><path
         d="m 9523.51,10218.7 c -57.72,-27.9 -111.35,-49 -169.06,-76.9 -1.94,611.7 -45.82,1262 -125.4,1868.4 -177.69,22.3 -355.39,44.5 -533.09,66.7 -237.93,29.8 -477.06,59.8 -707.25,127 -40.98,12 -90.3,37.2 -86.53,79.7 3.64,41.2 54.13,58.3 95.26,62 67.93,6 136.32,1.7 204.34,-3.4 405.91,-30.3 809.68,-89.5 1207.24,-176.8 54.98,-392.4 86.4,-785.3 109.5,-1180.8 15.41,-263.8 18.08,-501.9 4.99,-765.9"
         style="fill:#ffffff;fill-opacity:1;fill-rule:nonzero;stroke:none"
         id="path262" /><path
         d="m 10238.1,11859.9 c -118.7,17 -233.6,60.6 -334.27,127 -30.46,20 -57.96,48.4 -93.15,57.3 -41.15,10.4 -85.14,-9.8 -114.8,-40.7 -14.53,-15.1 -26.73,-33 -44.08,-44.7 -17.34,-11.6 -42.52,-15.2 -57.81,-0.9 -12.45,11.7 -14.27,30.8 -15.27,48 -2.89,49.3 -5.75,99.1 2.62,147.7 8.36,48.7 29.12,96.7 66.21,128.4 17.23,14.8 37.35,25.5 57.35,36 48.34,25.3 89.09,54.3 138.24,77.9 -33.84,20.4 -77.49,15.8 -113.36,-0.5 -35.87,-16.3 -66.14,-42.8 -97.62,-66.7 -31.47,-23.9 -66.05,-46.2 -104.95,-51.6 -9.76,-1.3 -23.5,2.1 -22.71,12.2 0.22,2.7 1.61,5.1 3,7.4 53.67,89.4 153.84,136.7 248.33,177.8 51.12,22.3 106.35,45 160.7,33.1 30.13,-6.5 57.07,-23.2 83.11,-40 168.46,-108.7 360.66,-199.9 473.36,-367.6 227.3,-338.4 444.2,-684 650.3,-1036.2 69.1,-118.1 139.2,-245.7 132.6,-383 -7.6,-157.8 -194.2,-260.8 -345.8,-293 -31,-6.5 -64.1,-9.8 -93.9,1.3 -32.5,12.1 -56.9,39.6 -78.3,67.3 -37.6,48.5 -70.6,100.8 -98.2,155.9 -18.9,37.6 -35.3,76.4 -51.3,115.4 -150,364.3 -265.1,746.7 -350.3,1132.2"
         style="fill:#ff966c;fill-opacity:1;fill-rule:nonzero;stroke:none"
         id="path264" /><path
         d="m 8959.35,10871.8 c 48.84,80 111.95,151.3 185.48,209.4 44.65,35.3 95.13,68.3 119.2,119.9 16.08,34.4 18.54,73.8 33.79,108.6 4.07,9.3 9.78,18.9 19.24,22.6 11.46,4.4 24.46,-1.4 33.74,-9.5 34.95,-30.3 34.59,-83.7 31.43,-129.9 -3.33,-48.6 -6.67,-97.3 -10,-146 87.22,14.9 122.36,97.3 179.52,149.2 6.92,6.3 14.15,12.8 23.08,15.5 32.17,10 56.68,-33.7 51.09,-66.8 -5.59,-33.3 -26.4,-63.6 -25.67,-97.2 0.6,-28.1 16.28,-54.7 14.05,-82.6 -2.93,-36.7 -35.79,-65.8 -38.38,-102.5 -2.15,-30.3 16.87,-61.5 6.28,-89.9 -5.52,-14.8 -18.15,-25.8 -26.29,-39.3 -20.19,-33.6 -10.32,-78 -26.43,-113.8 -23.98,-53.2 -92.3,-66.2 -150.38,-72.2 -391.91,-40.2 -796.16,-15.2 -1189.96,-26.5 -106.05,-3 -212.77,-6 -317.66,9.8 -104.9,15.8 -208.97,51.8 -291.09,118.9 -36.39,29.8 -68.46,66 -87.34,109.1 -41.36,94.3 -10.6,211 61.83,284.2 72.43,73.2 179.62,105.4 282.49,101 73.41,-3.1 144.87,-23.3 215.86,-42.3 285.59,-76.3 616.46,-170.6 906.12,-229.7"
         style="fill:#ff966c;fill-opacity:1;fill-rule:nonzero;stroke:none"
         id="path266" /><path
         d="m 2972.61,4414.2 c 0,1309 1061.15,2370.1 2370.15,2370.1 1309,0 2370.15,-1061.1 2370.15,-2370.1 0,-1309 -1061.15,-2370.2 -2370.15,-2370.2 -1309,0 -2370.15,1061.2 -2370.15,2370.2"
         style="fill:#113c54;fill-opacity:1;fill-rule:nonzero;stroke:none"
         id="path268" /><path
         d="m 3313.1,4414.2 c 0,1120.9 908.71,2029.6 2029.66,2029.6 1120.95,0 2029.66,-908.7 2029.66,-2029.6 0,-1121 -908.71,-2029.7 -2029.66,-2029.7 -1120.95,0 -2029.66,908.7 -2029.66,2029.7"
         style="fill:#ffffff;fill-opacity:1;fill-rule:nonzero;stroke:none"
         id="path270" /><path
         d="m 4053.03,4414.2 c 0,712.3 577.43,1289.7 1289.73,1289.7 712.3,0 1289.73,-577.4 1289.73,-1289.7 0,-712.3 -577.43,-1289.8 -1289.73,-1289.8 -712.3,0 -1289.73,577.5 -1289.73,1289.8"
         style="fill:#113c54;fill-opacity:1;fill-rule:nonzero;stroke:none"
         id="path272" /><path
         d="m 4217.63,4414.2 c 0,621.4 503.74,1125.1 1125.13,1125.1 621.4,0 1125.13,-503.7 1125.13,-1125.1 0,-621.4 -503.73,-1125.2 -1125.13,-1125.2 -621.39,0 -1125.13,503.8 -1125.13,1125.2"
         style="fill:#ffffff;fill-opacity:1;fill-rule:nonzero;stroke:none"
         id="path274" /><path
         d="m 4811.41,4414.2 c 0,293.4 237.89,531.3 531.35,531.3 293.46,0 531.35,-237.9 531.35,-531.3 0,-293.5 -237.89,-531.4 -531.35,-531.4 -293.46,0 -531.35,237.9 -531.35,531.4"
         style="fill:#113c54;fill-opacity:1;fill-rule:nonzero;stroke:none"
         id="path276" /><path
         d="m 5283.87,4480.9 3514.66,2154.5 63.22,-94.8 -3487.48,-2204.8 c -42.41,-26.8 -98.69,-11.5 -121.66,33.1 v 0 c -20.47,39.8 -6.84,88.6 31.26,112"
         style="fill:#c27d56;fill-opacity:1;fill-rule:nonzero;stroke:none"
         id="path278" /><path
         d="m 8688.96,6431.4 293.95,-212.1 -955.01,-556.7 -314.99,151.7 976.05,617.1"
         style="fill:#ffffff;fill-opacity:1;fill-rule:nonzero;stroke:none"
         id="path280" /><path
         d="m 8402.96,6771 -55.05,-362.1 -20.78,307.5 -660.68,-476.1 v -298.9 l 979.66,600.6 v 404.2 L 8402.96,6771"
         style="fill:#ffffff;fill-opacity:1;fill-rule:nonzero;stroke:none"
         id="path282" /><path
         d="m 2782.87,7630.1 c 60.1,-685.1 194.3,-1363.8 399.49,-2020.3 1228.74,-8.1 2471.94,287.7 3577.02,825 -159.15,658.4 -313.01,1347.5 -518.44,1993 L 2782.87,7630.1"
         style="fill:#357092;fill-opacity:1;fill-rule:nonzero;stroke:none"
         id="path284" /><path
         d="M 4245.91,9235.3 1415.26,7352.9 4835.92,7191.3 7842.16,9059.7 4245.91,9235.3"
         style="fill:#113c54;fill-opacity:1;fill-rule:nonzero;stroke:none"
         id="path286" /><path
         d="m 4507.12,8195.3 c -5.96,40.3 43.64,81 110.8,91 67.15,9.9 126.43,-14.7 132.39,-55 5.96,-40.3 -43.65,-81 -110.8,-90.9 -67.16,-10 -126.43,14.6 -132.39,54.9"
         style="fill:#ffba55;fill-opacity:1;fill-rule:nonzero;stroke:none"
         id="path288" /><path
         d="m 2561.25,5231.7 h -30 v 2076.5 l 7.64,4.3 c 487.03,274.1 2068.33,908.4 2084.24,914.7 l 11.16,-27.8 C 4618.47,8193 3055.27,7566 2561.25,7290.7 v -2059"
         style="fill:#ffba55;fill-opacity:1;fill-rule:nonzero;stroke:none"
         id="path290" /><path
         d="m 2546.25,5310.9 c 0,0 -147.64,-135.4 -147.64,-655.2 0,0 14.31,-63.2 147.64,-63.2 133.32,0 147.63,63.2 147.63,63.2 0,519.8 -147.63,655.2 -147.63,655.2"
         style="fill:#ffba55;fill-opacity:1;fill-rule:nonzero;stroke:none"
         id="path292" /><path
         d="m 13608.8,2236.6 c -23.5,302.5 -42.5,605.5 -68.4,907.6 l -499.1,-44.6 c 30.7,-176.4 32.7,-357.7 5.7,-534.7 -47,-34.8 -95.9,-66.8 -146.4,-96.3 150,-54 290.2,-135.6 410.7,-239.9 97.4,-0.9 197.5,2 297.5,7.9"
         style="fill:#ff966c;fill-opacity:1;fill-rule:nonzero;stroke:none"
         id="path294" /><path
         d="m 13311.3,2228.7 c -120.5,104.3 -260.7,185.9 -410.7,239.9 -76.1,-44.5 -155.6,-83.4 -237.1,-117.1 -209.9,-86.8 -446.9,-140.3 -600.6,-307.5 h 1561.5 c -5.5,64.2 -10.6,128.4 -15.6,192.6 -100,-5.9 -200.1,-8.8 -297.5,-7.9"
         style="fill:#113c54;fill-opacity:1;fill-rule:nonzero;stroke:none"
         id="path296" /><path
         d="m 14662.3,2437.5 c -23.1,46 -47.2,91.5 -71.3,136.7 -90.2,168.9 -174,349.7 -173.6,541.1 l -477.2,60.4 c -38.5,-121 -9.9,-251.7 11.9,-376.8 23.6,-136.1 40.8,-272.1 54.1,-408.7 99.9,64.7 216.6,103.6 335.6,109.8 109.8,5.7 220.7,-16.6 320.5,-62.5"
         style="fill:#ff966c;fill-opacity:1;fill-rule:nonzero;stroke:none"
         id="path298" /><path
         d="m 14341.8,2500 c -119,-6.2 -235.7,-45.1 -335.6,-109.8 11.1,-114.9 19.5,-230.1 26.1,-346.2 h 775.4 c -26.7,137.7 -82.2,267.5 -145.4,393.5 -99.8,45.9 -210.7,68.2 -320.5,62.5"
         style="fill:#113c54;fill-opacity:1;fill-rule:nonzero;stroke:none"
         id="path300" /><path
         d="m 13115.2,9275.4 c 307.8,-2102.2 351.6,-4242.2 775.1,-6324.2 h 690 c -23.9,733 -11.7,1490.1 -35.6,2223.1 -48.1,1479.7 -96.3,2960 -75.5,4440.3 l -1354,-339.2"
         style="fill:#c27d56;fill-opacity:1;fill-rule:nonzero;stroke:none"
         id="path302" /><path
         d="m 12231.2,9492.9 c 107,-1478.1 241,-2954.1 375,-4430 35.1,-385.9 228,-1787 299.3,-2098.7 h 732.1 c -82.5,2191.6 -200.7,4382.5 -361.1,6569.8 l -1045.3,-41.1"
         style="fill:#c27d56;fill-opacity:1;fill-rule:nonzero;stroke:none"
         id="path304" /><path
         d="m 13098.6,8761.3 c 73.3,-646.2 132,-1260.9 205.3,-1907.2 65.8,-580.3 131.6,-1161 228.2,-1737 5.8,-34.5 11.7,-69.1 17.7,-103.5 -72.5,1507.9 -162.9,3015 -273.3,4520.4 l -1045.3,-41.1 c 9.1,-126.4 18.5,-252.8 28.1,-379.2 2.7,-1.7 5.3,-3.5 8,-5.3 253.1,-164.7 536.3,-282.9 831.3,-347.1"
         style="fill:#99583f;fill-opacity:1;fill-rule:nonzero;stroke:none"
         id="path306" /><path
         d="m 14258.4,9868.4 c 18.5,-76.5 121.3,-88.7 199.8,-81.8 191.7,17 382,49.6 568.5,97.5 140,35.9 287.7,87.3 371.4,205.1 67.8,95.5 81.5,218.4 85.6,335.4 8.8,256.2 -18.1,512.2 -53.1,766.1 -39.7,288.9 -89.7,576.4 -149.9,861.7 -46.6,220.8 -99.7,441.8 -191,648.1 -91.3,206.4 -223.1,399.1 -404.2,533.7 -104,77.4 -225,136.7 -305,238.6 -41.7,11.3 -102.1,19 -143.8,7.7 -186.7,-50.8 -359.6,-151.6 -495.9,-289 l 517.6,-3323.1"
         style="fill:#357092;fill-opacity:1;fill-rule:nonzero;stroke:none"
         id="path308" /><path
         d="m 11692.6,12068.4 c -4.9,-318.6 -35.1,-636.8 -90.3,-950.6 -33.6,-191 -76.5,-380.4 -108.2,-571.7 -31,-186.9 -51.3,-375.4 -67.7,-564.1 -40.3,-461.1 -57.7,-924.6 -36.2,-1386.9 4,-85.3 7.5,-190.3 16.7,-275.2 2.6,-23.7 5.5,-48.2 17,-69.2 14.3,-26.3 40.2,-44.1 65.9,-59.8 66.4,-40.6 137.3,-73.8 211.1,-98.8 9.2,-3.1 19.2,-6.2 28.5,-3.3 11.2,3.3 18.2,13.9 24.4,23.8 34,54.5 68,109.1 101.9,163.6 8.3,-19 30.5,-30.1 47.7,-41.6 8.7,-5.7 20.8,-9.9 28.7,-3.3 5.4,4.6 6.5,12.5 6.8,19.6 1.9,39.5 -6.3,78.8 -14.5,117.5 -11.7,55.5 -23.4,111 -35.1,166.6 -6.8,32.2 -13.6,64.5 -22.9,96.2 -24.7,84.4 -66.7,162.6 -108.4,240 -53.4,99.3 15.9,249.4 45.5,358.2 244.2,897.2 534.3,1803 501.6,2732.3 l -612.5,106.7"
         style="fill:#ff966c;fill-opacity:1;fill-rule:nonzero;stroke:none"
         id="path310" /><path
         d="m 12201.9,10797.7 c 73.4,384.5 117,772.2 103.2,1164 l -612.5,106.7 c -3.2,-209.9 -17.5,-419.7 -42.6,-628.2 4.6,-8.7 9.1,-17.5 13.6,-26.3 215,-171.5 390.5,-383.7 538.3,-616.2"
         style="fill:#c27d56;fill-opacity:1;fill-rule:nonzero;stroke:none"
         id="path312" /><path
         d="m 13010,13454.2 c 60.8,13.3 111.6,54.1 157.5,96.2 53.6,49.2 103.9,101.9 150.6,157.6 36.8,43.8 72.3,90.4 111.4,132.4 -42.2,7.6 -84.4,15.4 -126.7,23.8 -21.8,161.5 -31.5,318.3 -45.5,480.6 -181.5,-84.5 -381.9,-120.7 -580.5,-95.1 21.8,-152.2 32,-306.1 30.5,-459.9 -16.4,-12.4 -33.2,-24.4 -50.3,-35.9 23,-67.6 51,-133.3 95,-188.9 61.3,-77.4 161.6,-132 258,-110.8"
         style="fill:#ff966c;fill-opacity:1;fill-rule:nonzero;stroke:none"
         id="path314" /><path
         d="m 13057.3,13974.8 c 85.6,40.3 153.4,103.3 216.2,172.6 -5.4,65.3 -10.5,130.9 -16.2,197.4 -181.5,-84.5 -381.9,-120.7 -580.5,-95.1 10.6,-74.4 18.5,-149.2 23.6,-224.2 87.9,-85.2 227,-105.4 356.9,-50.7"
         style="fill:#c27d56;fill-opacity:1;fill-rule:nonzero;stroke:none"
         id="path316" /><path
         d="m 14456.2,11439.2 c -44.4,776 -192.9,1554.8 -393.2,2305.9 -212.8,27.6 -423.1,57.2 -633.5,95.3 -39.1,-42 -74.6,-88.6 -111.4,-132.4 -46.7,-55.7 -97,-108.4 -150.6,-157.6 -45.9,-42.1 -96.7,-82.9 -157.5,-96.2 -96.4,-21.2 -196.7,33.4 -258,110.8 -44,55.6 -72,121.3 -95,188.9 -245.1,-165.3 -547.5,-241.2 -749.3,-458.4 -154,-165.8 -233.2,-386.9 -292.6,-605.3 -59.4,-218.4 -104.1,-443.4 -205.1,-646 233.7,-162 513.5,-256.6 797.5,-269.6 -65.6,-865.3 -20.9,-1767.4 -43.9,-2634.9 987.1,-371.6 1837.5,-108 2459,20.1 -23,760.1 -122.9,1520.2 -166.4,2279.4"
         style="fill:#f83b4f;fill-opacity:1;fill-rule:nonzero;stroke:none"
         id="path318" /><path
         d="m 12275.7,12274.5 c -57.2,286.3 -120.2,571.4 -188.8,855.2 -28,-206.8 1.7,-426.7 78.4,-620.8 17.5,-44.2 37.8,-88.1 44.5,-135.2 13.1,-92.7 -27.4,-184.3 -32.7,-277.7 44.5,58 70.4,111.1 98.6,178.5"
         style="fill:#b62c43;fill-opacity:1;fill-rule:nonzero;stroke:none"
         id="path320" /><path
         d="m 12445,14768.4 c -20.4,34.6 -41.8,70.2 -74.6,93.6 -32.7,23.3 -80.2,30.9 -112.5,7 -27.1,-20.1 -36.7,-56.4 -38.3,-90.1 -4.3,-87.9 36,-176.7 104.9,-231.5 68.9,-54.7 164.6,-74 249.2,-50 l -128.7,271"
         style="fill:#ff966c;fill-opacity:1;fill-rule:nonzero;stroke:none"
         id="path322" /><path
         d="m 13389.8,14742.8 c 13.5,31.4 27.6,63.7 51.8,87.9 24.2,24.2 61.3,38.8 93.5,27 41.3,-15.2 57.5,-65.1 60.4,-109 2.5,-36.6 -0.5,-73.5 -8.7,-109.2 -12.2,-53 -37.5,-104.9 -80.5,-138.3 -42.9,-33.4 -105.6,-44.4 -152.9,-17.6 l 36.4,259.2"
         style="fill:#ff966c;fill-opacity:1;fill-rule:nonzero;stroke:none"
         id="path324" /><path
         d="m 13361.5,14562.3 c 72.5,202.2 76,424.6 153.9,624.9 21.9,56.3 49.8,119 25.8,174.5 -14.7,34 -48.3,64.5 -40.2,100.7 3.7,16.4 15.8,29.7 21.8,45.4 15.8,41.7 -17.3,89.6 -59.5,103.9 -10.3,3.4 -22,6.1 -28.2,15 -9.4,13.4 -0.4,32.1 11.2,43.6 11.5,11.6 26.3,21.6 30.9,37.3 6.1,20.7 -9.5,42.9 -29.2,51.7 -19.8,8.8 -42.4,7.5 -63.9,5.9 -53.5,-4.1 -107.9,-9.7 -160.1,2.5 -5.5,1.3 -11.9,3.7 -13,9.3 -0.9,4.7 2.8,9 6.2,12.5 34.3,34.2 73.6,63.4 116.1,86.5 -90,1.8 -183.8,5.6 -273.5,-2.3 -46.5,-4.1 -93.1,-9.5 -137.7,-23 -44.4,-13.4 -86,-34.5 -127.3,-55.4 -124,-62.9 -249.4,-126.8 -354.6,-217.8 -29.5,-25.4 -57.7,-53.6 -75.1,-88.4 -19.6,-39.2 -24.3,-84.1 -26.3,-127.9 -8.8,-189.5 25,-378.4 64.9,-563.8 27,-125.5 58.6,-253.9 133.6,-358 l 824.2,122.9"
         style="fill:#5f130d;fill-opacity:1;fill-rule:nonzero;stroke:none"
         id="path326" /><path
         d="m 12578.6,15482.6 c 99.6,-57.9 211.8,-94 326.4,-104.9 150.8,35.5 229.2,62.3 352.8,113.2 46.5,-45.8 82.1,-114.5 122.6,-165.7 24.7,-250.6 28,-514 4.4,-764.7 -8.5,-90.3 -20.4,-181.2 -52.5,-266 -32.1,-84.7 -86.4,-163.7 -164,-210.6 -37.9,-22.9 -80.2,-37.5 -122.9,-49.4 -180.8,-50.2 -386.9,31.4 -475.4,197.2 -83.4,156.2 -124.8,332 -142.4,508.2 -17.6,176.2 -12.2,353.8 -6.8,530.7 61.3,61.9 113.3,137.2 157.8,212"
         style="fill:#ff966c;fill-opacity:1;fill-rule:nonzero;stroke:none"
         id="path328" /><path
         d="m 12727.3,14807.3 c 0,-13.8 -11.2,-25 -25,-25 -13.8,0 -25,11.2 -25,25 0,13.8 11.2,25 25,25 13.8,0 25,-11.2 25,-25"
         style="fill:#5f130d;fill-opacity:1;fill-rule:nonzero;stroke:none"
         id="path330" /><path
         d="m 13065.4,14807.3 c 0,-13.8 -11.2,-25 -25,-25 -13.8,0 -25,11.2 -25,25 0,13.8 11.2,25 25,25 13.8,0 25,-11.2 25,-25"
         style="fill:#5f130d;fill-opacity:1;fill-rule:nonzero;stroke:none"
         id="path332" /><path
         d="m 12740.7,15077.5 c -58.2,0.1 -116.4,-15.2 -167.1,-43.7 16.6,28 38.1,49.5 69.2,59.2 31.1,9.6 68.4,-1.7 97.9,-15.5"
         style="fill:#5f130d;fill-opacity:1;fill-rule:nonzero;stroke:none"
         id="path334" /><path
         d="m 13157,15065.3 c -55.9,13.5 -114,18.3 -171.4,13.9 25.8,14.5 55.3,26.4 84.7,22.9 29.5,-3.5 65,-16.7 86.7,-36.8"
         style="fill:#5f130d;fill-opacity:1;fill-rule:nonzero;stroke:none"
         id="path336" /><path
         d="m 12887.9,14528.9 c -7.1,-11.4 -25.9,-9.1 -34.6,1.2 -8.6,10.3 -9.7,24.8 -9.6,38.2 0.3,55 13.3,109.8 37.7,159 -1.6,-69.7 1.8,-128.8 6.5,-198.4"
         style="fill:#fc571e;fill-opacity:1;fill-rule:nonzero;stroke:none"
         id="path338" /><path
         d="m 13120.7,14471.1 c -131.8,-23.6 -266.1,-33.9 -400,-30.6 23.3,-32.4 44.5,-69.8 73.9,-96.9 29.4,-27 65.5,-48.4 105.1,-53.6 49.3,-6.5 99.9,13.1 136.6,46.7 36.6,33.5 72.6,86.2 84.4,134.4"
         style="fill:#b62c43;fill-opacity:1;fill-rule:nonzero;stroke:none"
         id="path340" /><path
         d="m 11707.3,12189.8 c 0,0 300,-945 830,-1875 0,0 645,65 1305,540 l -460,965 -275,915 c 0,0 -765,-215 -1400,-545"
         style="fill:#ffba55;fill-opacity:1;fill-rule:nonzero;stroke:none"
         id="path342" /><path
         d="m 13797.3,11394.7 c 101.2,17.7 222.4,60.4 317.4,99.4 -115.2,483.4 -226.9,968.2 -303.7,1459.1 -11,70.1 -21.2,140.4 -24.9,211.2 -10.7,209.6 29.7,416.4 131.2,600 -113.1,41.2 -240.2,67.9 -360.3,59.8 -109.9,-226.7 -144.4,-493.3 -133.2,-745 11.3,-251.7 65.4,-499.4 123.5,-744.5 74.1,-313.1 162.4,-630.4 250,-940"
         style="fill:#8bc3c0;fill-opacity:1;fill-rule:nonzero;stroke:none"
         id="path344" /><path
         d="m 13937.9,11110.2 c 178.2,-305.9 378,-599.1 597.4,-876.9 42.1,-53.4 88.9,-108.9 154,-128.7 -10.7,176.5 -22.9,353.8 -62.9,526 -40,172.3 -109.2,340.6 -222.9,476 l -465.6,3.6"
         style="fill:#8bc3c0;fill-opacity:1;fill-rule:nonzero;stroke:none"
         id="path346" /><path
         d="m 14259.4,13525.1 c 22,-19.7 53.3,-23.9 82.3,-29 300.8,-53.4 553.4,-313.1 598.5,-615.3 8.7,-58 55.4,-91.5 92.9,-136.6 -39.8,198.3 -89.7,399.1 -199.2,569.1 -109.5,169.9 -289.3,314.5 -491.5,314.6 -125.1,0 -105,-83.1 -83,-102.8"
         style="fill:#357092;fill-opacity:1;fill-rule:nonzero;stroke:none"
         id="path348" /><path
         d="m 11794.5,8368.5 c -37.1,59.5 -78.1,116.5 -122.6,170.6 1.5,-57.5 9.1,-112.4 23.4,-168.1 16.7,6.8 33.5,22.3 44.4,36.8 14,-17.5 35.7,-27.6 54.8,-39.3"
         style="fill:#c27d56;fill-opacity:1;fill-rule:nonzero;stroke:none"
         id="path350" /><path
         d="m 12856.5,10918.5 c 427.6,-4.1 855.4,5.1 1282.4,27.8 237.5,12.5 489.5,34.5 679.6,177.3 40.3,30.3 77.3,66 102.2,109.8 31.2,54.7 41.6,118.8 46.1,181.6 19.3,268.4 -66.6,529.1 -144.3,786.7 -241.8,25.8 -481,-10.4 -708.4,-96.6 16.5,-113.6 33,-227.2 49.6,-340.8 -449.7,-156.5 -901.7,-270.6 -1366.8,-372.4 -87.2,72.3 -197,132.7 -303.5,171.4 -85.3,31 -174.7,50.2 -258.8,84.5 -67.9,27.7 -131.7,65.1 -189.1,110.7 -12.3,9.8 -28.1,20.6 -42.5,14.2 -9.1,-4.1 -14.1,-13.9 -17.4,-23.3 -30.7,-87.2 25.8,-181.6 94.7,-243.1 68.8,-61.6 153.3,-107.7 206.5,-183.1 -86.9,-12.4 -170.9,-11.2 -255.9,-33.2 -20,-5.2 -40.6,-10.9 -56.4,-24.2 -15.8,-13.3 -25.4,-36.2 -17.1,-55.1 7.3,-16.7 25.6,-25.4 37.3,-39.3 31.2,-37.3 8.4,-100.8 40.1,-137.6 16.6,-19.3 44.4,-26.1 60.8,-45.6 28.8,-34.5 9.7,-91.2 35.6,-127.9 19.3,-27.4 58.4,-35.6 77.1,-63.4 13.9,-20.8 13.5,-48.4 25.5,-70.4 14.9,-27.5 47.4,-41.8 78.7,-43.2 31.4,-1.3 62,8.3 91.6,18.5 167.8,57.4 303.1,121.1 452.4,216.7"
         style="fill:#ff966c;fill-opacity:1;fill-rule:nonzero;stroke:none"
         id="path352" /><path
         d="m 14010.9,11953.9 c 311.9,85.2 629.7,148.3 950.5,188.6 -128.9,444.8 -259.7,894.3 -488.8,1296.8 -54.8,96.2 -267.4,339.9 -514.7,319.6 -140.9,-566.5 -125.3,-1249.1 53,-1805"
         style="fill:#f83b4f;fill-opacity:1;fill-rule:nonzero;stroke:none"
         id="path354" /><path
         d="m 6813.12,4120.9 c -225.38,157.5 -456.13,307.3 -691.71,449.1 -103.19,62.1 -213.73,129.8 -261.34,240.4 -4.41,10.2 -8.18,22.2 -3.38,32.2 5.84,12.3 21.24,15.9 34.66,17.9 153.97,23.1 310.33,23.4 466.03,23.6 57.52,0.1 116.26,0 170.73,-18.5 109.34,-37.2 181.08,-140.1 238.69,-240.2 83.21,-144.5 153.42,-296.1 223.51,-447.5 4.8,326.2 61.75,651.5 168.06,959.9 35.98,-23.5 81.98,-49.2 106.63,-84.4 -106.07,-277.6 -161.28,-578.7 -168.36,-875.8 79.37,109 169.36,210.3 268.29,302 52.87,49 110.66,96.5 180.14,115.6 57.67,15.9 118.76,11 178.34,5.7 144.25,-12.9 295.77,-29.6 413.86,-113.5 10.49,-7.4 21.32,-16.4 24.13,-28.9 5.87,-26.4 -24.97,-44.7 -50.37,-53.9 -365.75,-132.2 -731.5,-264.4 -1097.25,-396.6 l -200.66,112.9"
         style="fill:#8bc3c0;fill-opacity:1;fill-rule:nonzero;stroke:none"
         id="path356" /><path
         d="m 6650.19,4248 c -156.4,9.9 -315.26,-22 -455.72,-91.5 -71.59,-35.5 -139.72,-81.7 -187.25,-145.9 -69.93,-94.5 -88.15,-217.2 -92.28,-334.6 -13.46,-383 100.86,-763.9 288.48,-1098 74.72,-133 162.12,-260.9 275.29,-363.2 113.17,-102.4 254.21,-178.4 405.88,-195.3 131.79,-14.7 265.24,15.2 397.32,3.4 75.77,-6.8 150.62,-27.2 226.63,-24.1 120.91,4.9 233.58,70.1 316.99,157.8 83.41,87.7 140.89,196.6 190.52,306.9 72.53,161.3 130.66,329 173.48,500.6 50.26,201.5 79.38,411.7 47.69,616.9 -31.7,205.2 -129.74,406 -295.96,530.4 -83.05,62.2 -183.36,101.9 -286.43,113.6 -109.29,12.4 -191.48,-22.9 -294.28,-46.2 -238.45,-54.3 -474.4,54.2 -710.36,69.2"
         style="fill:#f83b4f;fill-opacity:1;fill-rule:nonzero;stroke:none"
         id="path358" /><path
         d="m 6436.07,3863.7 c -53.81,-19.4 -106.28,-44.3 -162.73,-53.6 -24.15,-4 -56.92,1 -60.74,25.1 -1.7,10.8 3.63,21.3 9.47,30.5 24.02,37.8 59.04,67.4 96.01,92.7 60.54,41.5 128.87,73.3 201.53,83.5 47.23,6.7 246.53,-0.3 225.35,-84.8 -13.28,-52.9 -255.76,-74.2 -308.89,-93.4"
         style="fill:#ffffff;fill-opacity:1;fill-rule:nonzero;stroke:none"
         id="path360" /></g></g></svg>
